<svg width="12" height="12" viewBox="0 0 12 12" fill="none" xmlns="http://www.w3.org/2000/svg">
<path id="Rectangle 29" d="M0 6.193C0 5.77616 0.258573 5.40304 0.648877 5.25667L3.66199 4.12676C3.88043 4.04484 4.06336 3.88912 4.17911 3.68656L5.76445 0.912205C5.91351 0.651354 6.17195 0.471342 6.4683 0.42195L7.49554 0.250743C8.20591 0.132348 8.80475 0.781007 8.63008 1.47967L8.31063 2.75746C8.15285 3.38861 8.63021 4 9.28078 4H11C11.5523 4 12 4.44772 12 5V7.81867C12 7.93858 11.9784 8.05751 11.9363 8.16979L10.7822 11.2475C10.6174 11.687 10.1691 11.9527 9.70443 11.8863L0.858579 10.6227C0.36593 10.5523 0 10.1304 0 9.6327V6.193Z" fill="white"/>
</svg>
